<svg width="192" height="192" viewBox="0 0 192 192" fill="none" xmlns="http://www.w3.org/2000/svg">
<rect width="192" height="192" rx="16" fill=""/>
<path d="M85.968 34.92H155.432V45.56H85.968V34.92ZM86.12 60.456H138.864V70.488H86.12V60.456ZM89.768 84.016H99.8V142.384H89.768V84.016ZM95.544 84.016H133.24V131.896H95.544V122.016H122.904V93.896H95.544V84.016ZM149.808 34.92H160.904V151.96C160.904 159.408 159.232 163.056 154.216 165.032C149.048 167.008 140.232 167.16 126.552 167.16C125.944 163.968 124.272 158.648 122.6 155.304C132.936 155.76 143.12 155.608 146.008 155.456C148.896 155.456 149.808 154.544 149.808 151.808V34.92ZM32.92 73.376H77.456V82.496H32.92V73.376ZM33.376 32.792H76.848V41.912H33.376V32.792ZM32.92 93.744H77.456V102.864H32.92V93.744ZM25.776 52.704H81.712V62.128H25.776V52.704ZM37.936 114.264H77.456V158.648H37.936V149.072H67.424V123.688H37.936V114.264ZM32.768 114.264H42.648V165.64H32.768V114.264Z" fill="white"/>
</svg>
