<svg width="16" height="16" viewBox="0 0 16 16" fill="none" xmlns="http://www.w3.org/2000/svg">
<path d="M12.1763 11.0768C12.0825 11.082 11.9939 11.082 11.9001 11.082C10.3838 11.082 8.95614 10.4932 7.88276 9.41986C6.80938 8.34647 6.22058 6.91877 6.22058 5.40249C6.22058 4.53753 6.41337 3.70383 6.7729 2.9483C6.93443 2.61482 7.12723 2.29697 7.35128 1.99997C6.95528 2.04165 6.5749 2.12502 6.20495 2.23966C3.76639 3.01082 2 5.28785 2 7.98173C2 11.3061 4.69388 14 8.01824 14C9.85758 14 11.4989 13.1767 12.6036 11.8793C12.8537 11.5823 13.0829 11.2592 13.2705 10.9153C12.9162 11.0039 12.5515 11.0612 12.1763 11.0768Z" fill="white"/>
</svg>
