<svg width="16" height="16" viewBox="0 0 16 16" fill="none" xmlns="http://www.w3.org/2000/svg">
<g clip-path="url(#clip0_1118_2)">
<path d="M13.6813 4.81875C14.0997 5.23617 14.4316 5.73202 14.6581 6.2779C14.8846 6.82379 15.0012 7.40899 15.0012 8C15.0012 8.591 14.8846 9.17621 14.6581 9.72209C14.4316 10.268 14.0997 10.7638 13.6813 11.1812" stroke="black" stroke-linecap="round" stroke-linejoin="round"/>
<path d="M5 10.5H2C1.86739 10.5 1.74021 10.4473 1.64645 10.3536C1.55268 10.2598 1.5 10.1326 1.5 10V6C1.5 5.86739 1.55268 5.74021 1.64645 5.64645C1.74021 5.55268 1.86739 5.5 2 5.5H5L9.5 2V14L5 10.5Z" fill="black" stroke="black" stroke-linecap="round" stroke-linejoin="round"/>
<path d="M11.9125 6.5875C12.0984 6.77274 12.246 6.99287 12.3466 7.23526C12.4473 7.47765 12.4991 7.73753 12.4991 8C12.4991 8.26247 12.4473 8.52235 12.3466 8.76475C12.246 9.00714 12.0984 9.22727 11.9125 9.4125" stroke="black" stroke-linecap="round" stroke-linejoin="round"/>
</g>
<defs>
<clipPath id="clip0_1118_2">
<rect width="16" height="16" fill="white"/>
</clipPath>
</defs>
</svg>
